<?xml version="1.0"?>
<svg xmlns:rdf="http://www.w3.org/1999/02/22-rdf-syntax-ns#" xmlns="http://www.w3.org/2000/svg" xmlns:cc="http://creativecommons.org/ns#" xmlns:dc="http://purl.org/dc/elements/1.1/" xmlns:svg="http://www.w3.org/2000/svg" id="Layer_1" xml:space="preserve" viewBox="-187.67 -51.099 1239.6096 334.84904" version="1.1" y="0px" x="0px" enable-background="new -187.67 -51.099 749.027 203.964">
<path id="path37" d="m1043-51.092-184.32 0.67196s20.201 5.2529 30.238 5.5307c9.8664 0.27623 21.161-5.4852 28.636 1.6024-16.117 3.8688-29.111 7.633-42.178 11.94-13.836 4.5619-21.018 10.049-29.411 19.9-40.402 28.539-78.715 25.349-112.22 61.252-5.3641 7.693-5.3372 16.874-11.94 23.88-2.7987 2.9707-7.5917 5.7879-11.113 8.7355-4.1715 3.4934-8.0019 7.459-11.94 8.7872-7.4515 2.5241-14.382 1.3754-19.9 2.3777-5.1871 0.93785-11.279 2.9194-15.145 5.5824-4.9026 3.3776-7.6239 10.896-14.318 14.318-3.1096 1.5879-7.6314 1.1372-11.113 2.3777-8.912 3.1708-17.745 5.6994-21.193 13.026-1.2398 2.6345 3.318 4.7835 2.4811 8.2703-3.1973 1.7638-8.0797 4.2706-8.0118 9.5108h8.8905c4.0048-4.3144 12.611-9.4184 12.767-9.5108-0.0997 0.22829-7.7887 17.85-1.2922 23.88h6.8747c-0.61544-2.0948-0.67109-2.568 4.2385-2.2226-4.4544-10.912 7.9088-11.636 7.9601-20.676 2.3523-2.0715 4.7039-3.6867 7.4432-3.7216 0.9131-0.0116 2.8946 0.5169 2.8946 0.5169l-7.9601 13.026h19.28v0.15498c3.8158 0.0349 7.979 0.24424 10.028-1.5507 5.0169-4.3953 9.7192-9.4587 13.646-15.61 7.0628-0.95274 23.729 0.24397 26.258-7.9601 2.5825-10.222-6.3251-18.991-6.3578-28.636 0.53592-3.1196 5.1462-4.6471 4.8071-7.1331 8.3669-2.5715 15.719-7.7807 21.451-14.318 4.0442-5.46 5.9265-12.817 10.338-18.35 27.633-27.628 83.615 3.3413 89.784-45.228 12.392-8.2537 25.249-24.159 37.578-30.342 22.935-2.2727 42.912-12.22 65.232-17.523 2.0461 0.15052 1.162-3.0339 2.3777-3.9801 0.83694-0.64839 3.0522 0.53757 3.9801 0 0.38703-0.2233 0.57518-2.3049 0.77534-2.3777 1.7864-0.65832 9.8412-0.0524 11.94-0.77534 2.8499-0.98085 3.4652-2.778 5.5824-3.2047 2.4992-0.50779 5.9604 1.8976 7.9601-0.77534 13.386-0.0827 22.201 5.0271 36.596 3.9801 6.4375-0.46644 12.823-3.83 22.278-3.2047 4.2675 0.2845 7.7588 2.9058 11.94 1.6024 1.0486-0.2807 2.3777-1.6023 2.3777-1.6023s0.1174-1.5242 0-1.5507c-2.4303-0.55576-5.2323-0.71538-8.2186-0.67196zm-553.54 0.67196-195.23 0.67196s-28.824 16.557-55.411 27.964c-16.865 7.3622-28.352 12.924-38.198 23.053-2.6597 2.7342-5.6842 5.5783-7.1331 7.9601-16.961 38.972-62.812-1.716-100.28 40.576-22.236 7.2466-33.437 9.7941-47.761 18.298-5.5841 2.1751 0.9946-3.1616-17.471 4.8071-18.466 7.9686-69.443 10.32-91.542 38.974-11.284 7.8122-20.069 2.8894-32.616 3.153-14.543 0.30558-29.738 15.906-33.598 30.445h6.7713c0.2706-3.0554 2.7107-6.7907 4.1868-2.1193 1.7082-6.7942 6.8924-5.9517 10.751-5.2206-1.2033-9.8662 18.322-11.534 24.656-10.338-0.45705 6.6568-1.6441 10.784-8.7872 11.94 10.847 12.882 19.133-5.4626 23.105-13.543 6.6311-0.7956 8.1313 3.0695 13.543 3.9801 5.4112 0.91056 14.757 0.12439 18.298-3.9801 3.5413-4.1045 8.9568-9.7138 2.0159-21.089 9.9409-6.9111 75.718-16.611 90.973-20.624 15.254-4.0133 8.5786-14.553 18.401-14.783 10.917-3.4276 22.086-5.3597 31.789-11.94 6.0439-2.4331 10.212-3.0865 14.68-4.652 4.4676-1.5656 3.8246-4.4085 5.2206-6.4612 10.555-0.39651 19.839-11.131 30.238-4.8071 1.525 0.35727 4.1695-0.33577 6.3578 0 3.8473 0.58553 7.8427 3.3337 14.37 2.3777 9.0973-1.3299 12.313-7.5698 20.676-11.889 3.6108 0.3672 5.2508 2.6614 7.1331 4.7554-0.84522 3.3445-2.0891 7.2022-4.7554 9.5625-4.3303 3.8324-16.693 8.2376-24.656 8.7355-4.1699 0.263-7.4776-1.2219-11.94-1.6024-28.157-2.4017-55.787 7.3134-71.589 18.298-2.2578 4.1037-4.781 7.9792-7.9601 11.165 4.4891 15.498 18.523 0.0906 27.033-3.9801 7.4151-3.5463 14.336-8.4841 21.503-4.8071-0.42013 6.7403-4.7488 9.6452-6.4095 15.145 23.625-3.2964 33.825-9.7963 58.926 1.6024 5.6271-4.7207 14.114-6.5529 23.829-7.1848-0.71125 2.5704 2.6175 1.1124 3.2047 2.3777 18.056 1.611 30.97-1.8968 38.198-11.113 1.2786-10.434 0.11082-25.484-4.7554-32.616-2.4596-3.6025-7.0992-7.0913-11.165-9.5625-3.9763-2.4133-10.049-2.6676-13.543-7.1848 10.601-3.1907 21.843-5.7181 31.841-9.5108 5.03-8.7665 16.523-11.089 19.9-21.503 12.829-6.7805 40.806-34.305 54.119-29.463 9.2445 0.69305 18.505-2.7846 27.809-1.5507 5.0151 0.66493 9.7217 3.6952 14.37 4.7554 8.1446 1.8608 18.424 3.8151 27.809 3.2047 5.7925-0.37712 12.11-3.4524 18.298-3.9801 3.8837-0.32915 7.4614 0.39863 11.165 0 4.7008-0.50614 9.3508-3.347 14.318-3.2047 6.2341 0.17863 13.317 7.1984 19.073 0 24.194 2.372 60.515-17.268 94.695-7.1848 2.8665-0.47637 2.399 2.6715 4.8071 2.4294 2.0017-0.20096 2.6415-2.1565 4.7554-2.4294 15.543-0.68643 36.246-1.3472 54.894-1.5507 27.222-0.29112 81.152-6.3578 81.152-6.3578h-210.06zm241.13 0s-147.64 34.346-220.4 36.596c-7.817-1.6607-8.8694-6.6956-19.9-5.5824-4.4527 0.45156-8.3592 2.7461-11.94 3.9801-4.7074 1.621-9.3905 1.5325-14.318 3.2047-11.219 3.8109-20.742 10.263-31.065 15.869-6.0869 3.3048-11.943 6.5687-18.298 9.5625-12.994 6.12-23.995 15.104-35.769 19.9-20.997 6.8797-54.175 24.962-83.581 37.371-2.8566 0.90146-6.8594 1.8616-9.5108 3.2047-3.5512 1.7996-11.389 6.9301-11.94 11.113-0.5508 4.1848 4.705 14.544 7.1331 14.68 3.0128-9.4294 6.596-13.456 9.6659-15.972 8.3 8.3862 12.372 9.5074 20.572-5.0655 8.4862-0.6477 11.204-1.6567 14.731-8.2703 3.6193 14.265-18.396 2.3756-18.401 22.95-0.58223 2.1734 2.7279 5.6035 2.7395 7.1848 3.6935-0.54914 5.6461-10.525 6.5128-13.904 28.541-0.30246 38.255-37.849 70.039-47.709 1.664-0.33908 2.0746 0.52392 3.153 0.77534 6.8594-6.1365 16.88-9.151 25.483-13.543 6.598-6.3102 15.907-10.612 24.656-16.696 6.0654-4.2212 13.697-8.8484 22.278-13.543 7.827-4.284 16.474-10.483 27.86-7.9601 5.417 1.2008 9.0774 7.9453 15.093 8.7872 3.457 0.48464 8.8223-0.4284 11.94-0.82703 11.425-1.449 22.639-5.8016 35.821-7.1331-3.1311 3.9383-8.8285 4.2625-13.543 5.5824-12.903 3.6091-28.236 9.2734-42.954 12.716-5.8223 1.3596-12.912 0.58967-19.125 2.3777-5.6569 1.6276-11.398 5.6755-15.869 8.7355-8.2024 5.6172-15.439 15.19-27.085 17.523-4.1087 0.82207-9.2085-0.77782-13.491 0.77534-7.4068 2.6895-11.98 10.681-5.5824 18.35-3.6323 0.0761-9.5625 1.5507-9.5625 1.5507l4.1868 7.4949s-0.68271 13.405-2.7912 96.038c-0.42904 16.814-0.83356 32.146-1.3956 55.618 0 0-11.713 0.51689-19.9 0.51689 0-3.2774-0.33247-5.111 0-8.8905-2.2975-1.4159 0.005-3.8033-5.7892-8.0635 4.5859-2.9891 5.8027 0.00071 7.3916-9.8209-3.9466 3.2105-4.4957 9.8515-11.165 10.338 2.9594 3.4437 4.8438 3.7219 5.2206 7.5466-6.2335 0-15.643 0.46062-22.123 0.0516-1.525-1.9485-1.9977-5.1495-0.36182-8.1152-5.373 0.14341-11.586-0.34349-16.334-2.7395-11.071-8.2584-5.6531-32.814 10.183-24.759 0.47288-16.732 26.366-14.227 30.6-0.98209 1.2494-1.3176 5.3252 4.0272 6.7196 7.7017-0.008-3.7153-0.78776-9.3557-4.3419-9.3557 0 0 14.3-15.329 20.314-6.8747l0.98209-2.171c-8.602-11.113-18.432 2.1864-21.296 5.0138-4.987-2.673-7.8405-6.5696-14.318-7.4949-7.4011-1.0573-19.324 2.2396-20.727 10.493-2.8558-1.3179-5.5843-1.7616-7.2365-0.9304 0-15.914 0.42101-7.0545 0-34.115-3.1088-9.0128-10.784-8.1674-13.077 0.4652 0 24.102 0.005 54.519 0.20676 73.812h-11.682c-0.79281-31.46 0-47.501 0-104.67h-17.316c-0.005 34.691 0.63866 70.27 0 104.67h-7.3399c0.0227 7.6576 0.8066 20.091 0.0516 25.586-3.775-12.207-5.324-16.696-5.324-16.696s0.15085-1.7429-2.7912-8.8905c0.16764-34.785 1.3291-69.313-0.31014-104.67h-16.799c0 46.299 0.0207 69.392-1.0855 110.67h-16.696c-1.3414-1.0586 1.2968-5.3455-0.82702-7.1848-4.7289-1.9154-12.406 1.3518-19.073-0.77533-3.5082 0.2051-1.5606 5.8876-3.2047 7.9601h-13.491c4.203-7.8981-0.37836-17.32-7.1848-19.125-0.37276-2.9023-0.3198-6.3126-4.7554-9.5108 5.7522 7.1404-0.48481 24.871-7.2365 20.779v-6.151h-20.727c-0.58454-34.649 0.0966-69.296 0-103.95h-23.053v57.479c0.0192-0.0003 0.0326 0.00023 0.0516 0-0.0825 15.117-0.0516 24.67-0.0516 46.417-7.8497 0-9.7493 0.0116-16.644-0.25843-0.48723-18.79 0.58377-37.692-0.20675-56.393 1.6081-0.91286 7.451 1.8827 10.545 7.0297 1.7004-5.8272-5.3492-9.3615-10.338-11.113v-42.178c-6.9827-0.99168-16.182-1.0764-22.743-0.98209 0 45.397 0.0433 53.603 0.20676 103.9-5.1392-0.42673-9.9718 0-15.817 0-0.19197-39.945 0-74.201 0-103.9-10.447 0-12.044 0.008-20.521 0.20676 0.15499 34.481-0.22541 68.948 0 103.43-1.9912 0.27284-15.382 0.0753-20.779 0.51688 0 10.2-0.0194 15.93-0.72365 25.121h-33.34l0.10338-32.978h-6.7196c-0.1009-6.0562-0.10338-12.49-0.10338-17.523-6.7069 0-13.179-0.19204-22.64-0.20676v17.729c-21.739 0-46.749 0.88988-71.383 0-0.11562-13.819-0.10338-26.994-0.10338-42.695-6.0598 0-8.7461 0.005-12.199-0.10338-0.49787 16.511-0.0678 26.228 0 42.799h-21.141c-0.29491-11.643-0.17988-19.323-0.36183-26.982-4.744 0-3.3313 0.13563-5.5824 0-0.38986-4.8187-0.36197-11.586-0.36182-18.453h-13.904c-0.00006 7.4524-0.0149 13.634-0.4652 18.453h-15.714c-2.7459 2.3374-1.853 1.3894-5.324 4.0834-6.4766-8.9113-4.8324-6.124-6.3578-8.9422-7.3958-0.66339-15.981 0-27.085 0v124c66.65 0.0327 133.25 0.17338 199.83 0.31013-20.541-21.351-18.774-41.65 12.928-37.681 5.2639-25.897 20.676-19.018 48.272-6.5653-39.008-16.389-46.206-6.5973-46.158 11.94-17.255-8.5282-38.214 3.5967-15.042 32.306 336.73-1.2256 1039.1 0 1039.1 0s0.7175-46.657 0.7237-73.657c-12.648 0.003-38.922 0-38.922 0v-9.0456l-5.1172-3.8767h-24.449c-0.003 2.4533 0.0516 3.8767 0.0516 3.8767h-1.7057s0.18233-23.627 0-36.027h-3.0497c1.7824-0.72368 2.877-2.4022 3.0497-5.2723v-3.5149c-3.3046-17.935 3.5518-18.438 10.545-30.858 3.1659 0.46148 7.5772 5.3715 11.165 3.2047 9.5588-1.5763 2.1668-15.331 4.7554-23.88 16.762 3.0587 8.575-8.0276 7.0298-12.767 10.841-3.7497 24.265-5.2768 29.566-8.6838 5.3014-3.407 4.8515-9.1027 7.0814-13.801l-0.7235-20.417s-13.785 6.4548-15.145 23.467c-0.4028 5.0387-5.855-4.0408-11.113 0-43.69 3.2181-29.925 26.131-30.238 43.367-18.286-11.18-33.827 14.924-22.64 33.029-10.891 1.2152-3.8339 12.079 0.72365 16.127-0.31632 0.3408-3.825 0-3.825 0s-0.0516 18.148-0.0516 41.041l-13.129-0.0516s-4.7108-5.843-4.5486-10.648c0.23819-7.0959 9.4029-9.0696 14.835-12.664-6.125-0.007-9.6894-0.41517-10.338-5.5824-0.72448-5.8421 6.8829-9.5629 8.7355-13.543-9.0146 1.3084-16.191 14.729-7.9601 21.503-6.8445 8.2504-17.91-1.4936-15.093-11.165 1.7996-6.1547 8.2616-4.0318 11.94-7.9601-9.6481-2.1949-17.214 5.9736-15.92 14.37 1.0106 6.6245 8.0333 8.0577 12.767 11.268-2.8367 5.7032 3.8767 14.421 3.8767 14.421h-9.8726v-10.286h-26.051v-66.576h-16.541c-0.028 24.631 0.72365 66.576 0.72365 66.576h-41.972v-50.345h-17.626c-0.15597 8.648-0.15498 50.345-0.15498 50.345l-5.324 0.15498-0.31014-45.952h-14.421c-0.003 1.4541-0.0538 30.662 0 45.952l-7.7534-0.20675 0.10338 24.397-27.809 0.10338-0.15499-7.9084-47.916 0.0516 0.15499 27.964-11.785-0.31014-0.10338-61.872h-13.232l-0.20676 61.872s-9.5361 0.31014-19.073 0.31014c-11.667-10.328-11.904-28.656 8.1669-27.757-9.7972-5.9696-16.746 3.2866-19.332 9.149-0.15284-3.899-0.15499-2.646-0.15499-5.8409-6.995 0.0347-10.363 0-16.385 0v-66.731h-14.059v66.731h-10.803c0.0595-19.561-0.50619-35.988 0-53.653h-11.837v53.653c-2.6732 0-5.4712 0.33412-9.2524 0-0.003-31.507-0.00008-65.158 0-66.059h-12.095c0.008 14.99 0.17505 22.659 0 37.526-2.0342-5.1665-8.7926-8.7842-18.246-10.441 11.011 4.9558 15.677 8.9398 18.246 14.421 0 11.877 0.46479 18.409-0.20675 24.552h-18.04c-0.13233-4.112-6.3065-9.7597-7.5983-12.716-17.887 0-36.639 0.51275-53.602 0 0.29788-15.808 0-16.164 0-34.218-4.8745-0.10089-7.0628 0-12.095 0 0 9.8637 0.0187 22.342 0.0516 34.218-14.096 0.081-24.18 0.01-36.803 0.25844-6.3568 17.054-5.3112 16.837-8.9422 27.654-7.6829-0.38195-11.186 3.8103-12.147 9.2524 3.4983-18.927-4.7211-26.517-19.694-24.449-4.2601-56.081-6.4611-151.6-6.4611-151.6l2.9463-8.7355h-14.576c4.7587-8.2124 16.976-1.7521 24.656-0.87872 4.8993-4.5553 11.683-2.3227 18.298-3.9801 4.5801-1.1512 8.2318-4.8067 12.767-5.5824 4.542-0.77575 9.6336 0.94612 14.318 0 4.2857-0.86506 7.6496-4.3882 11.113-5.5824 6.5269-10.71 9.4281-25.074 21.503-30.238 0.50779 1.7318-2.2747 2.5199 0.77533 2.3777 8.7152-5.6387 17.246-11.435 28.636-8.7355 4.8216-0.74267 9.1308-3.6571 14.318-4.7554 3.1278-0.65666 6.4463 0.42344 9.5625-0.82702 8.5443-5.2717 20.553-1.8003 28.636-9.5108 3.5777-0.3887 5.9951 0.38333 8.7872 0.77534 37.314-13.353 84.25 4.6787 117.75-25.483 1.75-1.4357 5.5824-3.9801 5.5824-3.9801l38.974-9.5108h-46.934l-0.00017 0.00008zm-340.22 228.52c0.003 1.7942-0.16524 3.153-0.31014 3.153 1.0093-0.19368 0.94394-1.4828 0.31014-3.153zm-134.81-190.37c11.152 2.1602-5.9434 14.125-10.39 17.523-9.6233 7.3523-16.305 8.3501-28.636 9.5625 7.4449-12.448 25.052-14.757 37.423-22.278-0.63185-2.7507 0.89443-3.3912 1.6024-4.8071zm780.14 2.7395c-6.6599 0.18735-14.298 3.3596-20.417 14.008-13.092-7.2862-25.354-8.0241-31.789 3.153-33.621 5.1915-12.783 43.52-25.379 59.701-5.1408 8.2422-23.88 11.94-23.88 11.94s10.003-36.971-15.92-23.777c-15.942-15.302-28.353 0.002-15.972 10.751-12.387 2.555-21.755 0.003-19.435 25.69 0.8225 9.1072-13.948-13.765-22.536 8.5804-17.793-4.0088-12.243 9.7548-17.781 13.543-20.07 2.951-46.793 5.0247-29.618 29.618 1.6252 2.3272 9.5625 5.1172 9.5625 5.1172h14.421s4.2602-2.4052 5.6341-4.1351v-0.41351l11.268-0.56859s12.7-6.4155 14.37-15.093c1.7334-0.14887 2.52 0.64591 2.3777 2.3777 6.2226-3.0567 13.424-1.4287 20.262-3.8767 3.1949-5.656 9.8462-19.539 15.558-19.9 0.81603-0.0516 1.6128 0.15929 2.3777 0.72365 4.0928 3.02-8.3484 6.1779-7.3916 10.286-0.73099 6.4204 2.0108 8.8836 3.7733 9.8209h10.183c7.1854-2.7997 9.7763-11.408 10.545-12.457 5.0134-19.486 20.606-16.669 32.978-22.795 6.5897-5.8835 7.3771-14.606 11.165-23.829 1.7037-4.1533 5.2425-7.253 7.1331-11.165 2.7656-5.7114 6.3262-2.2887 13.232-12.354 2.1436-6.3466 1.0772-11.005 1.9125-18.66 0.91799-0.66493 10.803 2.0159 10.803 2.0159s-7.3359-22.375 23.002-8.7355c5.2383-1.7682 7.4705-12.286 13.129-13.181 3.4652-0.54583 11.94 2.3777 11.94 2.3777v-14.318s-6.944-4.6862-15.507-4.4453zm-540.3 28.222c0.63754-0.008 1.3108 0.0448 2.0159 0.10338-3.9023 4.8913-23.853 19.856-23.053 7.9601 9.0714-0.62802 11.474-7.9291 21.037-8.0635zm-280.47 23.984c5.1028 2.1288 10.997 8.2016 10.39 12.716-1.1049 8.1958-12.911 4.9407-23.105 5.5824 0.19683-3.2519 4.1364-2.7544 6.3578-3.9801 2.2545-3.0501 4.5945-6.0212 6.3578-9.5625v-4.7554zm481.43 56.496c2.3024 14.011-14.938 15.311-26.31 18.298 2.2677-5.9579 4.3245-12.956 8.7872-15.92 4.4626-2.9641 11.697-1.5755 17.523-2.3777zm-620.88 17.572c-16.985 1.4686-24.765 12.196-28.429 26.982-14.749-2.8516-21.378 7.9411-28.636 15.093 0.612 4.1236 1.5802 4.4101 0 11.165 2.8748-1.7037 4.8804-8.1313 3.2564-10.545 9.4544-13.688 11.718-14.777 21.606-7.9601 0.33326-2.9046 1.7125-5.6933 1.7058-4.0318-0.01 2.9919-1.0249 18.178 8.477 15.352-5.7919-6.642-4.9477-15.42-1.6024-21.503 3.0342-3.3515 4.8997-5.4117 4.7554-10.338 1.2654-1.7698 9.5625-5.5824 9.5625-5.5824s-2.8962-1.0607-0.82702-3.153c2.4544-1.3649 7.3184-3.3534 10.131-3.0497v-2.4294zm75.931 32.254c-3.138 2.1078-7.0849 3.6444-9.149 7.0814 4.8934-1.8354 5.9013-3.3648 8.9422-4.2902l0.20676-2.7912zm24.087 1.1888v2.9463c15.518 2.8958 22.832 15.063 22.743 33.546 5.7826-5.3161 2.1308-19.742-1.6024-25.483-4.5214-6.9533-14.049-8.4556-21.141-11.01zm817.52 5.4274c-3.1284 0.001-6.4239 0.80996-9.5108 2.4811v1.6541c16.878-5.9753 25.364 1.0829 22.33 18.143 7.6561-12.572-1.646-22.283-12.819-22.278zm-243.35 9.2524c-1.0592 0.0311-2.1226 0.14126-3.2047 0.31014-5.546 0.86507-8.661 6.0489-14.318 5.5824 0.26299 1.8575 0.97051 3.2734 1.6024 4.7554 4.9059-0.39532 7.9163-2.6961 11.165-4.7554 6.9603 2.8814 16.517-1.0685 20.676 5.5824 2.6994 4.3055 3.2887 14.457-1.6024 17.471 3.4983 4.0442 9.2474 1.7347 11.113 7.1848 1.1875 3.478-0.0986 8.8142-0.56858 10.545h2.0676c1.8573-3.4637 8.393-17.389-6.2544-18.505 7.9503-14.102-4.7869-28.637-20.676-28.171zm-309.15 11.578-0.41352 2.6361c7.0807 5.8143 9.0541 16.018 5.6341 24.294 14.006-11.915 20.842-4.5157 26.051 9.149 0-13.665-3.9561-21.271-20.882-16.644 0.25916-8.3283-5.9604-15.118-10.39-19.435zm-232.7 20.572c5.733 2.2462 6.8825 8.6226 5.5824 15.92-5.2135 0.37613-11.774 0.36182-17.574 0.36182v-3.9801s3.8775-0.27044 5.6341-1.9642c3.4917-2.0742 5.142-5.9794 6.3578-10.338zm135.94 1.8608c5.3616 2.4485 8.606 2.2086 13.026 1.499-1.78 2.0515-0.95935 4.3634-0.82703 6.6162-3.4487 0-8.7499-0.0516-12.199-0.0516v-8.0636zm-321.87 6.99v3.7733c3.9151 2.3634 15.259 7.407 25.175 0.0915-8.7883 2.0742-16.992 3.6011-25.175-3.8647v-0.00007zm934.7 4.4333c4.1061-0.0215 8.2349 0.003 12.354 0.0516v5.6858l-24.707 0.10338v-5.7375c4.1543-0.0384 8.2477-0.0819 12.354-0.10338v0.00009zm-614.58 3.6182c6.7036 0.28096 14.342 8.1574 16.799 15.765-9.0642 1.2849-9.0998 13.396-4.5486 20.366-10.652 1.3016-8.3567 10.353-2.1709 16.747-18.525 10.968-38.502-15.067-18.763-26.93-19.98-5.318-16.507-27.548-0.20676-19.022 2.1132-5.1228 5.3791-7.0735 8.8905-6.9264zm23.364 3.825c2.3699-0.28971 4.9761 2.3423 3.9801 9.5108 4.0633 0.89172 6.9119 0.8855 5.0138 6.4611 1.0204-1.0892 6.6489-6.816 12.509-6.4611 9.5799 2.2535 6.1899 11.403 0.46521 15.869 8.9918 0.54997 10.441-12.095 10.441-12.095 1.0636-4.7865 33.549-18.466 27.602 25.741 6.4245-12.286 16.112-18.535 23.88-8.322 29.561-7.5201 29.275 29.931 10.131 32.099 0.92253-11.524-9.2573-19.89-9.6659-19.073 3.6552 6.7855 6.7253 6.1155 6.9264 13.077-1.2805-5.5348-13.724-10.747-18.246 7.65-2.525-10.017-19.764-18.087-29.825-5.5824 1.0986-2.887-8.1436-10.96-9.8209-9.5625 0 0 2.3897-2.41 1.6024-5.5824-2.9674-0.4681-8.9836 7.4738-14.318 2.3777-1.4804 0.88988 1.8877 6.5993-1.6024 7.1848-7.2878-3.3395-2.3777-15.145-2.3777-15.145s-6.3568 3.8187-2.7395 12.819c-4.1699-0.86838-9.3549-7.0595-10.079-11.372-4.1394 3.8826-1.0851 2.9624-3.1014 4.1351-6.0246 18.753-27.907-8.7757-10.7-9.7693-3.9722-19.631 3.8449-20.016 9.9243-21.761-5.7184-6.6221-3.047-11.826 0-12.199zm8.9939 15.972c-0.10206 0.10884-0.41352 0.41352-0.41352 0.41352s0.30276 0.042 0.41352-0.41352zm-273.45-10.07c5.1049-0.10007 9.7807 2.4084 11.733 8.8905-6.5525-6.8204-14.398-8.3795-23.26-4.5486 3.3367-2.6072 7.5562-4.264 11.527-4.3419zm32.512 2.326c13.746 0.0534 22.368 14.892 9.149 26.775 2.2346-12.569-2.5613-24.373-13.543-26.31 1.5141-0.32975 2.9715-0.47073 4.3936-0.4652zm308.58 1.0338c6.6731-0.0218 13.058 4.8298 9.6659 13.284 1.7224-6.9228-5.9369-15.182-18.04-10.079 2.2474-2.143 5.3404-3.1948 8.3736-3.2047zm241.44 5.5307c2.1038 3.8955 4.2416 5.6431 6.151 7.7534h-6.151c0-2.2985-0.0804-5.7403 0-7.7534zm-571.22 4.652c11.169-0.0986 21.112 11.581 16.024 23.467 5.49 4.578 1.6024 9.0456 1.6024 9.0456 1.0851-1.8738-2.1797-11.265-8.0118-5.8409 3.6926-6.3822 4.4723-10.988 0-17.523-11.213-6.0471-24.811-1.499-24.811-1.499s-3.0453-10.594 5.8409-4.5486c3.0205-2.1315 6.2284-3.0738 9.3557-3.1014zm-44.504 3.1014c-0.0184 14.095 8.6725 38.679 31.962 31.335-2.1656 8.8343-31.949-0.0873-28.55-11.434-9.0106 1.1208-12.587-12.467-3.4115-19.9zm84.305 15.197s25.591 4.2223 9.149 20.366c5.0065-10.867-0.62773-13.637-9.149-20.366zm244.95 15.248c3.9561-0.29978 2.4096 0.95509 5.7066 8.5594-9.0129-8.3405-13.198-4.2155-15.251-0.4868 4.2834-7.8861 5.0612-7.7329 9.5448-8.0726z"/><path id="path9" d="m869.81-12.737c-0.35066 0.97755-1.0156 1.6359-2.3884 1.5912-0.37051-1.6954 1.138-1.5184 2.3884-1.5912z"/><path id="path17" d="m99.879 122.14c8.909 0.17681 12.79 4.8887 10.05 14.722-1.4118-7.9516-4.9002-10.556-10.05-14.722z"/><path id="path19" d="m16.836 162.31c-3.1907 1.8525-5.4021 4.681-5.5708 9.5505-6.1184-2.2164 0.63184-13.325 5.5708-9.5505z"/><path id="path23" d="m1009.9 178.23c2.4298 0.11611 2.5403 1.186 4.1976 1.6459 19.119-14.091 47.92 11.698 27.269 28.66 11.885-21.684-10.232-36.66-26.103-27.398 2.1107 2.3332 3.9601 8.0878-3.7756 15.39 5.6869-7.6567 4.2616-13.448-1.5879-18.297z"/><path id="path25" d="m712 188.4c-11.935 2.0176-17.317 0.99268-14.06 21.656-17.081-16.019 0.21278-25.237 14.06-21.656z"/><path id="path29" d="m373.59 236.53c-3.4564 4.0943-7.4409 15.555-5.4089 18.597-5.1034-8.7386-1.379-13.575 5.4089-18.597z"/><path id="path31" d="m-56.37 262.57c0.37216 2.4794-2.0014 2.8433-3.1824 1.5896 0.19352-1.396 1.3712-1.8112 3.1824-1.5896z"/><path id="path33" d="m-51.594 263.36h2.3868c-0.0678 1.1297-0.13067 2.2561 0.7956 2.3918-0.11579 1.7351-2.0014 1.7053-3.9797 1.5862-0.655-2.2429 1.1214-2.0593 0.79726-3.978z"/><path id="path35" d="m561.74 187.53c-3.723 4.0379-5.5383 5.7206-7.8148 14.562-1.7917-0.13282-2.2659-0.58152-2.6071-1.2405 3.5294-25.699 26.089-25.639 39.44-27.322-7.2468 1.9316-10.787 2.2463-11.031 4.122 0.82868 0.4466 7.1641 4.5711 7.5949 9.8995-8.7975-14.577-17.937-5.8934-24.616-1.6367 4.2466 2.3322 10.772 3.569 4.8775 13.27 0.69467-5.0334 1.6113-8.2376-5.8431-11.654z"/>
<path id="path3130" d="m409.79 65.961z" fill-rule="evenodd"/><metadata><rdf:RDF><cc:Work><dc:format>image/svg+xml</dc:format><dc:type rdf:resource="http://purl.org/dc/dcmitype/StillImage"/><cc:license rdf:resource="http://creativecommons.org/licenses/publicdomain/"/><dc:publisher><cc:Agent rdf:about="http://openclipart.org/"><dc:title>Openclipart</dc:title></cc:Agent></dc:publisher><dc:title>Industry pollution</dc:title><dc:date>2012-05-04T17:03:06</dc:date><dc:description>clip art, clipart, ecology, factories, factory, industry, industry, pollution, skyline, smoke, smokestack, town, </dc:description><dc:source>http://openclipart.org/detail/169852/industry-by-cybergedeon</dc:source><dc:creator><cc:Agent><dc:title>dominiquechappard</dc:title></cc:Agent></dc:creator><dc:subject><rdf:Bag><rdf:li>clip art</rdf:li><rdf:li>clipart</rdf:li><rdf:li>ecology</rdf:li><rdf:li>factories</rdf:li><rdf:li>factory</rdf:li><rdf:li>industry</rdf:li><rdf:li>pollution</rdf:li><rdf:li>skyline</rdf:li><rdf:li>smoke</rdf:li><rdf:li>smokestack</rdf:li><rdf:li>town</rdf:li></rdf:Bag></dc:subject></cc:Work><cc:License rdf:about="http://creativecommons.org/licenses/publicdomain/"><cc:permits rdf:resource="http://creativecommons.org/ns#Reproduction"/><cc:permits rdf:resource="http://creativecommons.org/ns#Distribution"/><cc:permits rdf:resource="http://creativecommons.org/ns#DerivativeWorks"/></cc:License></rdf:RDF></metadata></svg>
